<?xml version="1.0" encoding="iso-8859-1"?>
<!-- Uploaded to: SVG Repo, www.svgrepo.com, Generator: SVG Repo Mixer Tools -->
<svg fill="#000000" height="800px" width="800px" version="1.1" id="Layer_1" xmlns="http://www.w3.org/2000/svg" xmlns:xlink="http://www.w3.org/1999/xlink" 
	 viewBox="0 0 512.001 512.001" xml:space="preserve">
<g>
	<g>
		<path d="M267.537,235.017c-46.677-17.536-90.564-17.51-134.195,0.077c-4.369,1.766-6.485,6.733-4.727,11.102
			c1.766,4.378,6.741,6.485,11.11,4.719C179.2,235,219.042,235.017,261.53,250.992c0.981,0.367,1.997,0.546,3.004,0.546
			c3.448,0,6.699-2.116,7.996-5.538C274.176,241.596,271.949,236.673,267.537,235.017z"/>
	</g>
</g>
<g>
	<g>
		<path d="M503.467,307.201h-28.629c-14.976-31.65-35.695-50.637-63.036-57.702l14.541-50.884c0.964-3.396-0.256-7.04-3.072-9.165
			c-2.825-2.133-6.664-2.287-9.66-0.418l-62.942,39.339c-41.131-33.442-106.726-40.627-155.469-40.627
			c-37.683,0-72.883,7.526-102.75,20.514c-4.361-10.334-14.054-18.893-28.356-24.815c-20.258-8.397-46.336-9.847-59.375-3.345
			C1.826,181.547,0,184.5,0,187.734c0,13.85,0,42.667,25.6,42.667c4.719,0,8.533-3.823,8.533-8.533c0-4.71-3.814-8.533-8.533-8.533
			c-5.726,0-8.004-4.881-8.448-19.482c9.677-1.877,26.564-0.367,40.405,5.359c10.342,4.284,17.203,10.121,19.499,16.469
			C30.268,240.649,0,280.031,0,324.276c0,28.245,8.849,52.565,26.317,72.337l25.097,108.783c0.896,3.866,4.343,6.605,8.32,6.605
			h76.8c4.719,0,8.533-3.823,8.533-8.533v-30.669c36.514,11.605,74.598,13.542,115.84,5.931l22.4,29.858
			c1.604,2.15,4.139,3.413,6.827,3.413h59.733c4.719,0,8.533-3.823,8.533-8.533v-43.699c89.796-12.621,153.933-58.163,153.6-109.918
			v-34.116C512,311.024,508.186,307.201,503.467,307.201z M494.933,349.867c0,0.017,0,0.043,0,0.06
			c0.307,43.639-62.49,83.994-146.065,93.867c-4.301,0.503-7.535,4.147-7.535,8.474v42.667H294.4l-23.04-30.72
			c-1.963-2.637-5.299-3.908-8.525-3.243c-44.45,9.045-84.796,6.374-123.29-8.158c-2.62-0.998-5.564-0.631-7.859,0.964
			c-2.313,1.596-3.686,4.224-3.686,7.023v34.133H66.526l-24.073-104.32c-0.333-1.442-1.033-2.773-2.039-3.866
			c-15.71-17.05-23.347-37.487-23.347-62.473c0-65.877,79.906-119.467,178.133-119.467c67.456,0,120.346,14.362,148.915,40.431
			c2.833,2.577,7.023,2.961,10.274,0.93l49.434-30.899l-10.965,38.383c-0.666,2.355-0.299,4.89,1.024,6.955
			c1.323,2.065,3.465,3.456,5.888,3.823c27.716,4.25,47.334,21.623,61.73,54.707c1.365,3.115,4.446,5.129,7.834,5.129h25.6V349.867z
			"/>
	</g>
</g>
<g>
	<g>
		<path d="M414.72,291.841l-0.068-0.051c-3.763-2.842-9.079-2.048-11.913,1.732c-2.833,3.772-2.031,9.148,1.741,11.972
			c1.536,1.152,3.328,1.707,5.111,1.707c2.603,0,5.154-1.178,6.835-3.413C419.26,300.016,418.492,294.665,414.72,291.841z"/>
	</g>
</g>
<g>
	<g>
		<path d="M197.879,76.954c-0.418-0.077-0.836-0.128-1.246-0.145c-10.522-0.444-15.966-4.497-15.915-8.286
			c0.051-3.575,4.941-8.661,15.548-8.789c14.711,0,17.877,3.994,18.918,5.308c2.927,3.695,8.277,4.301,11.989,1.382
			c3.695-2.927,4.309-8.294,1.374-11.989c-5.111-6.451-12.791-10.086-23.748-11.281v-0.486c0-4.71-3.814-8.533-8.533-8.533
			s-8.533,3.823-8.533,8.533v0.913c-15.607,3.081-23.927,13.961-24.081,24.687c-0.179,11.938,9.523,24.397,31.59,25.566
			c14.003,2.799,18.381,7.825,18.219,9.719c-0.222,2.543-6.204,7.185-17.195,7.381c-13.141,0-15.471-1.826-19.482-5.948
			c-3.285-3.379-8.687-3.456-12.066-0.171s-3.447,8.687-0.171,12.066c6.622,6.81,12.757,9.796,23.185,10.743v0.375
			c0,4.71,3.814,8.533,8.533,8.533s8.533-3.823,8.533-8.533v-0.87c14.515-2.577,24.713-10.982,25.668-22.118
			C230.904,99.986,229.828,83.081,197.879,76.954z"/>
	</g>
</g>
<g>
	<g>
		<path d="M196.267,0.001c-47.053,0-85.333,38.281-85.333,85.333c0,47.053,38.281,85.333,85.333,85.333S281.6,132.387,281.6,85.334
			C281.6,38.281,243.319,0.001,196.267,0.001z M196.267,153.601c-37.641,0-68.267-30.626-68.267-68.267
			c0-37.64,30.626-68.267,68.267-68.267c37.641,0,68.267,30.626,68.267,68.267C264.533,122.975,233.907,153.601,196.267,153.601z"/>
	</g>
</g>
</svg>